<mxfile host="app.diagrams.net" agent="Mozilla/5.0 (Windows NT 10.0; Win64; x64) AppleWebKit/537.36 (KHTML, like Gecko) Chrome/136.0.0.0 Safari/537.36" version="27.0.6">
  <diagram name="Página-1" id="TdmdNkXriOisOzvpx672">
    <mxGraphModel dx="1737" dy="980" grid="1" gridSize="10" guides="1" tooltips="1" connect="1" arrows="1" fold="1" page="1" pageScale="1" pageWidth="827" pageHeight="1169" math="0" shadow="0">
      <root>
        <mxCell id="0" />
        <mxCell id="1" parent="0" />
        <mxCell id="Fu6tGw6RhwJsr1cDiouq-1" value="" style="whiteSpace=wrap;strokeWidth=2;" vertex="1" parent="1">
          <mxGeometry x="20" y="124" width="1747" height="512" as="geometry" />
        </mxCell>
        <mxCell id="Fu6tGw6RhwJsr1cDiouq-2" value="Solicitante" style="whiteSpace=wrap;strokeWidth=2;" vertex="1" parent="1">
          <mxGeometry x="330" y="60" width="66" height="30" as="geometry" />
        </mxCell>
        <mxCell id="Fu6tGw6RhwJsr1cDiouq-3" value="Gestor" style="whiteSpace=wrap;strokeWidth=2;" vertex="1" parent="1">
          <mxGeometry x="1802" y="190" width="78" height="37" as="geometry" />
        </mxCell>
        <mxCell id="Fu6tGw6RhwJsr1cDiouq-4" value="Motorista" style="whiteSpace=wrap;strokeWidth=2;" vertex="1" parent="1">
          <mxGeometry x="1802" y="330" width="78" height="30" as="geometry" />
        </mxCell>
        <mxCell id="Fu6tGw6RhwJsr1cDiouq-5" value="Cadastrar e Submeter&#xa;Solicitação de Viagem" style="whiteSpace=wrap;strokeWidth=2;" vertex="1" parent="1">
          <mxGeometry x="55" y="149" width="260" height="102" as="geometry" />
        </mxCell>
        <mxCell id="Fu6tGw6RhwJsr1cDiouq-6" value="Aprovar/Rejeitar&#xa;Solicitação" style="whiteSpace=wrap;strokeWidth=2;" vertex="1" parent="1">
          <mxGeometry x="385" y="301" width="274" height="54" as="geometry" />
        </mxCell>
        <mxCell id="Fu6tGw6RhwJsr1cDiouq-7" value="Atribuir Motorista&#xa;e Veículo" style="whiteSpace=wrap;strokeWidth=2;" vertex="1" parent="1">
          <mxGeometry x="567" y="405" width="260" height="78" as="geometry" />
        </mxCell>
        <mxCell id="Fu6tGw6RhwJsr1cDiouq-8" value="Receber Notificação&#xa;de Status" style="whiteSpace=wrap;strokeWidth=2;" vertex="1" parent="1">
          <mxGeometry x="679" y="533" width="260" height="78" as="geometry" />
        </mxCell>
        <mxCell id="Fu6tGw6RhwJsr1cDiouq-9" value="Visualizar&#xa;Calendário de Viagens" style="whiteSpace=wrap;strokeWidth=2;" vertex="1" parent="1">
          <mxGeometry x="989" y="533" width="260" height="78" as="geometry" />
        </mxCell>
        <mxCell id="Fu6tGw6RhwJsr1cDiouq-10" value="Gerenciar Viagens&#xa;Programadas" style="whiteSpace=wrap;strokeWidth=2;" vertex="1" parent="1">
          <mxGeometry x="1162" y="405" width="260" height="78" as="geometry" />
        </mxCell>
        <mxCell id="Fu6tGw6RhwJsr1cDiouq-11" value="Registrar Execução&#xa;de Viagem" style="whiteSpace=wrap;strokeWidth=2;" vertex="1" parent="1">
          <mxGeometry x="1472" y="405" width="260" height="78" as="geometry" />
        </mxCell>
        <mxCell id="Fu6tGw6RhwJsr1cDiouq-12" value="Gerar Relatórios" style="whiteSpace=wrap;strokeWidth=2;" vertex="1" parent="1">
          <mxGeometry x="1339" y="301" width="177" height="54" as="geometry" />
        </mxCell>
        <mxCell id="Fu6tGw6RhwJsr1cDiouq-13" value="" style="curved=1;startArrow=none;endArrow=block;exitX=0;exitY=0.8;entryX=0.5;entryY=0;rounded=0;" edge="1" parent="1" source="Fu6tGw6RhwJsr1cDiouq-2" target="Fu6tGw6RhwJsr1cDiouq-5">
          <mxGeometry relative="1" as="geometry">
            <Array as="points">
              <mxPoint x="185" y="99" />
            </Array>
          </mxGeometry>
        </mxCell>
        <mxCell id="Fu6tGw6RhwJsr1cDiouq-14" value="" style="curved=1;startArrow=none;endArrow=block;exitX=0.3;exitY=1;entryX=0;entryY=0.27;rounded=0;" edge="1" parent="1" source="Fu6tGw6RhwJsr1cDiouq-2" target="Fu6tGw6RhwJsr1cDiouq-8">
          <mxGeometry relative="1" as="geometry">
            <Array as="points">
              <mxPoint x="350" y="99" />
              <mxPoint x="350" y="508" />
            </Array>
          </mxGeometry>
        </mxCell>
        <mxCell id="Fu6tGw6RhwJsr1cDiouq-15" value="" style="curved=1;startArrow=none;endArrow=block;exitX=1;exitY=0.64;entryX=0;entryY=0.09;rounded=0;" edge="1" parent="1" source="Fu6tGw6RhwJsr1cDiouq-2" target="Fu6tGw6RhwJsr1cDiouq-9">
          <mxGeometry relative="1" as="geometry">
            <Array as="points">
              <mxPoint x="862" y="99" />
              <mxPoint x="862" y="508" />
            </Array>
          </mxGeometry>
        </mxCell>
        <mxCell id="Fu6tGw6RhwJsr1cDiouq-16" value="" style="curved=1;startArrow=none;endArrow=block;exitX=0;exitY=0.58;entryX=1;entryY=0.13;rounded=0;" edge="1" parent="1" source="Fu6tGw6RhwJsr1cDiouq-3" target="Fu6tGw6RhwJsr1cDiouq-6">
          <mxGeometry relative="1" as="geometry">
            <Array as="points">
              <mxPoint x="882" y="276" />
            </Array>
          </mxGeometry>
        </mxCell>
        <mxCell id="Fu6tGw6RhwJsr1cDiouq-17" value="" style="curved=1;startArrow=none;endArrow=block;exitX=0;exitY=0.58;entryX=0.98;entryY=0;rounded=0;" edge="1" parent="1" source="Fu6tGw6RhwJsr1cDiouq-3" target="Fu6tGw6RhwJsr1cDiouq-7">
          <mxGeometry relative="1" as="geometry">
            <Array as="points">
              <mxPoint x="902" y="276" />
              <mxPoint x="902" y="380" />
            </Array>
          </mxGeometry>
        </mxCell>
        <mxCell id="Fu6tGw6RhwJsr1cDiouq-18" value="" style="curved=1;startArrow=none;endArrow=block;exitX=0;exitY=0.58;entryX=0.76;entryY=0;rounded=0;" edge="1" parent="1" source="Fu6tGw6RhwJsr1cDiouq-3" target="Fu6tGw6RhwJsr1cDiouq-8">
          <mxGeometry relative="1" as="geometry">
            <Array as="points">
              <mxPoint x="922" y="276" />
              <mxPoint x="922" y="508" />
            </Array>
          </mxGeometry>
        </mxCell>
        <mxCell id="Fu6tGw6RhwJsr1cDiouq-19" value="" style="curved=1;startArrow=none;endArrow=block;exitX=0;exitY=0.6;entryX=0.43;entryY=0;rounded=0;" edge="1" parent="1" source="Fu6tGw6RhwJsr1cDiouq-3" target="Fu6tGw6RhwJsr1cDiouq-9">
          <mxGeometry relative="1" as="geometry">
            <Array as="points">
              <mxPoint x="1087" y="276" />
              <mxPoint x="1087" y="508" />
            </Array>
          </mxGeometry>
        </mxCell>
        <mxCell id="Fu6tGw6RhwJsr1cDiouq-20" value="" style="curved=1;startArrow=none;endArrow=block;exitX=0;exitY=0.68;entryX=0.5;entryY=0;rounded=0;" edge="1" parent="1" source="Fu6tGw6RhwJsr1cDiouq-3" target="Fu6tGw6RhwJsr1cDiouq-12">
          <mxGeometry relative="1" as="geometry">
            <Array as="points">
              <mxPoint x="1427" y="276" />
            </Array>
          </mxGeometry>
        </mxCell>
        <mxCell id="Fu6tGw6RhwJsr1cDiouq-21" value="" style="curved=1;startArrow=none;endArrow=block;exitX=0;exitY=0.58;entryX=1;entryY=0.14;rounded=0;" edge="1" parent="1" source="Fu6tGw6RhwJsr1cDiouq-4" target="Fu6tGw6RhwJsr1cDiouq-8">
          <mxGeometry relative="1" as="geometry">
            <Array as="points">
              <mxPoint x="1107" y="380" />
              <mxPoint x="1107" y="508" />
            </Array>
          </mxGeometry>
        </mxCell>
        <mxCell id="Fu6tGw6RhwJsr1cDiouq-22" value="" style="curved=1;startArrow=none;endArrow=block;exitX=0;exitY=0.58;entryX=0.52;entryY=0;rounded=0;" edge="1" parent="1" source="Fu6tGw6RhwJsr1cDiouq-4" target="Fu6tGw6RhwJsr1cDiouq-9">
          <mxGeometry relative="1" as="geometry">
            <Array as="points">
              <mxPoint x="1127" y="380" />
              <mxPoint x="1127" y="508" />
            </Array>
          </mxGeometry>
        </mxCell>
        <mxCell id="Fu6tGw6RhwJsr1cDiouq-23" value="" style="curved=1;startArrow=none;endArrow=block;exitX=0;exitY=0.61;entryX=0.5;entryY=0;rounded=0;" edge="1" parent="1" source="Fu6tGw6RhwJsr1cDiouq-4" target="Fu6tGw6RhwJsr1cDiouq-10">
          <mxGeometry relative="1" as="geometry">
            <Array as="points">
              <mxPoint x="1292" y="380" />
            </Array>
          </mxGeometry>
        </mxCell>
        <mxCell id="Fu6tGw6RhwJsr1cDiouq-24" value="" style="curved=1;startArrow=none;endArrow=block;exitX=0;exitY=0.73;entryX=0.5;entryY=0;rounded=0;" edge="1" parent="1" source="Fu6tGw6RhwJsr1cDiouq-4" target="Fu6tGw6RhwJsr1cDiouq-11">
          <mxGeometry relative="1" as="geometry">
            <Array as="points">
              <mxPoint x="1602" y="380" />
            </Array>
          </mxGeometry>
        </mxCell>
        <mxCell id="Fu6tGw6RhwJsr1cDiouq-25" value="" style="curved=1;dashed=1;dashPattern=2 3;startArrow=none;endArrow=block;exitX=0.5;exitY=1;entryX=0;entryY=0.11;rounded=0;" edge="1" parent="1" source="Fu6tGw6RhwJsr1cDiouq-5" target="Fu6tGw6RhwJsr1cDiouq-6">
          <mxGeometry relative="1" as="geometry">
            <Array as="points">
              <mxPoint x="185" y="276" />
            </Array>
          </mxGeometry>
        </mxCell>
        <mxCell id="Fu6tGw6RhwJsr1cDiouq-26" value="" style="curved=1;dashed=1;dashPattern=2 3;startArrow=none;endArrow=block;exitX=0.36;exitY=1;entryX=0;entryY=0.07;rounded=0;" edge="1" parent="1" source="Fu6tGw6RhwJsr1cDiouq-6" target="Fu6tGw6RhwJsr1cDiouq-7">
          <mxGeometry relative="1" as="geometry">
            <Array as="points">
              <mxPoint x="446" y="380" />
            </Array>
          </mxGeometry>
        </mxCell>
        <mxCell id="Fu6tGw6RhwJsr1cDiouq-27" value="" style="curved=1;dashed=1;dashPattern=2 3;startArrow=none;endArrow=block;exitX=0.52;exitY=1;entryX=0;entryY=0.12;rounded=0;" edge="1" parent="1" source="Fu6tGw6RhwJsr1cDiouq-6" target="Fu6tGw6RhwJsr1cDiouq-8">
          <mxGeometry relative="1" as="geometry">
            <Array as="points">
              <mxPoint x="532" y="380" />
              <mxPoint x="532" y="508" />
            </Array>
          </mxGeometry>
        </mxCell>
        <mxCell id="Fu6tGw6RhwJsr1cDiouq-28" value="" style="curved=1;dashed=1;dashPattern=2 3;startArrow=none;endArrow=block;exitX=0.33;exitY=1;entryX=0.07;entryY=0;rounded=0;" edge="1" parent="1" source="Fu6tGw6RhwJsr1cDiouq-7" target="Fu6tGw6RhwJsr1cDiouq-8">
          <mxGeometry relative="1" as="geometry">
            <Array as="points">
              <mxPoint x="624" y="508" />
            </Array>
          </mxGeometry>
        </mxCell>
        <mxCell id="Fu6tGw6RhwJsr1cDiouq-29" value="" style="curved=1;dashed=1;dashPattern=2 3;startArrow=none;endArrow=block;exitX=0.67;exitY=1;entryX=0;entryY=0.2;rounded=0;" edge="1" parent="1" source="Fu6tGw6RhwJsr1cDiouq-7" target="Fu6tGw6RhwJsr1cDiouq-9">
          <mxGeometry relative="1" as="geometry">
            <Array as="points">
              <mxPoint x="769" y="508" />
            </Array>
          </mxGeometry>
        </mxCell>
        <mxCell id="Fu6tGw6RhwJsr1cDiouq-30" value="" style="curved=1;dashed=1;dashPattern=2 3;startArrow=none;endArrow=block;exitX=0.5;exitY=1;entryX=1;entryY=0.37;rounded=0;" edge="1" parent="1" source="Fu6tGw6RhwJsr1cDiouq-11" target="Fu6tGw6RhwJsr1cDiouq-8">
          <mxGeometry relative="1" as="geometry">
            <Array as="points">
              <mxPoint x="1602" y="508" />
            </Array>
          </mxGeometry>
        </mxCell>
        <mxCell id="Fu6tGw6RhwJsr1cDiouq-32" value="" style="shape=umlActor;verticalLabelPosition=bottom;verticalAlign=top;html=1;outlineConnect=0;" vertex="1" parent="1">
          <mxGeometry x="348" y="10" width="30" height="50" as="geometry" />
        </mxCell>
        <mxCell id="Fu6tGw6RhwJsr1cDiouq-34" value="" style="shape=umlActor;verticalLabelPosition=bottom;verticalAlign=top;html=1;outlineConnect=0;" vertex="1" parent="1">
          <mxGeometry x="1826" y="140" width="30" height="50" as="geometry" />
        </mxCell>
        <mxCell id="Fu6tGw6RhwJsr1cDiouq-35" value="" style="shape=umlActor;verticalLabelPosition=bottom;verticalAlign=top;html=1;outlineConnect=0;" vertex="1" parent="1">
          <mxGeometry x="1826" y="280" width="30" height="50" as="geometry" />
        </mxCell>
      </root>
    </mxGraphModel>
  </diagram>
</mxfile>
